<svg width="1366" height="180" xmlns:xlink="http://www.w3.org/1999/xlink" xmlns="http://www.w3.org/2000/svg"><defs><clipPath id="prefix__b"><use xlink:href="#prefix__a"/></clipPath><path d="M0 0h1366v180H0V0z" id="prefix__a"/></defs><path d="M0 0h1366v180H0V0z" fill="none"/><g clip-path="url(#prefix__b)"><path d="M1366 138.788c-18.5-3.01-36.92-5.971-55.01-8.879-32.72-5.26-64.39-10.351-93.6-15.258-106.87-17.95-218.524-27.724-331.45-37.608-61.011-5.34-122.395-10.714-183.598-17.427-61.506-6.746-124.485-16.302-187.026-25.791C395.552 15.652 277.395-2.276 174.259.237 75.035 2.654 42.972 23.227 10.284 44.203 6.888 46.383 3.485 48.566 0 50.733V180h1366v-41.212z" fill="#DDDBF2" fill-opacity=".259" fill-rule="evenodd"/></g></svg>